# xmcd
# 
# Track frame offsets:
#     150
#     20640
#     44195
#     66045
#     88640
#     108700
#     128190
#     156087
#     176132
#     195577
#     219340
#     245082
#     262770
#     285407
#     303275
#     322452
#     341540
# 
# Disc length: 4782
# 
# Revision: 4
# Processed by: cddbd v1.5.2PL0 Copyright (c) Steve Scherf et al.
# Submitted via: fre:ac v1.0.17
# 
DISCID=0212ac11
DTITLE=Lisa Stansfield - Affection (Bonus Tracks)
DYEAR=2003
DGENRE=Pop
TTITLE0=This Is The Right Time [Remastered]
TTITLE1=Mighty Love [Remastered]
TTITLE2=Sincerity
TTITLE3=The Love In Me [Remastered]
TTITLE4=All Around The World [Remastered]
TTITLE5=What Did I Do To You? [7" Version - Remastered]
TTITLE6=Live Together [Remastered]
TTITLE7=You Can't Deny It [US Version - Remastered]
TTITLE8=Poison [Remastered]
TTITLE9=When Are You Coming Back? [Remastered]
TTITLE10=Affection [Remastered]
TTITLE11=Wake Up Baby [Remastered]
TTITLE12=The Way You Want It [Remastered]
TTITLE13=People Hold On [Single Version]
TTITLE14=My Apple Heart
TTITLE15=Lay Me Down [Remastered]
TTITLE16=Something's Happening [Remastered]
EXTD=
EXTT0=
EXTT1=
EXTT2=
EXTT3=
EXTT4=
EXTT5=
EXTT6=
EXTT7=
EXTT8=
EXTT9=
EXTT10=
EXTT11=
EXTT12=
EXTT13=
EXTT14=
EXTT15=
EXTT16=
PLAYORDER=
